<svg width="100" height="100" viewBox="0 0 100 100" fill="none" xmlns="http://www.w3.org/2000/svg">
<g clip-path="url(#clip0_28915_56292)">
<path d="M86.0863 80.735C45.6065 100 20.4843 83.8816 4.40272 74.0915C3.4076 73.4745 1.71625 74.2358 3.18373 75.9214C8.54129 82.4175 26.0992 98.0752 49.0173 98.0752C71.9512 98.0752 85.5947 85.5614 87.3014 83.3784C88.9966 81.2139 87.7992 80.0199 86.0859 80.735H86.0863ZM97.455 74.4566C96.3679 73.041 90.8449 72.7772 87.3691 73.2041C83.888 73.6188 78.6627 75.7464 79.117 77.0238C79.3501 77.5023 79.8259 77.2877 82.2174 77.0727C84.6154 76.8334 91.3331 75.9856 92.7329 77.8155C94.1392 79.658 90.5903 88.4352 89.9421 89.8507C89.3159 91.2663 90.1814 91.6313 91.3577 90.6885C92.5178 89.7461 94.6181 87.3054 96.0275 83.8516C97.4273 80.3788 98.2812 75.5344 97.455 74.4566Z" fill="#FF9900"/>
<path fill-rule="evenodd" clip-rule="evenodd" d="M58.8682 41.4249C58.8682 46.4798 58.9959 50.6953 56.441 55.1843C54.3788 58.8343 51.1123 61.0788 47.4626 61.0788C42.4805 61.0788 39.579 57.283 39.579 51.6808C39.579 40.6218 49.4878 38.6146 58.8682 38.6146V41.4249ZM71.9524 73.0502C71.0947 73.8165 69.8537 73.8715 68.8867 73.3603C64.58 69.7837 63.8134 68.1231 61.4412 64.7104C54.3242 71.9736 49.2874 74.145 40.0536 74.145C29.1408 74.145 20.6367 67.4111 20.6367 53.9253C20.6367 43.3959 26.3489 36.2239 34.4691 32.7204C41.5134 29.6178 51.3496 29.0704 58.8682 28.213V26.5339C58.8682 23.4497 59.1051 19.8001 57.2988 17.1359C55.7109 14.7452 52.6817 13.7597 50.0171 13.7597C45.0719 13.7597 40.6556 16.2962 39.579 21.5518C39.3597 22.72 38.5023 23.8698 37.3345 23.9244L24.7426 22.5742C23.6844 22.3365 22.5166 21.4791 22.8085 19.8547C25.71 4.59901 39.4874 0 51.8235 0C58.1377 0 66.386 1.67905 71.3682 6.46039C77.6824 12.3546 77.08 20.2197 77.08 28.7784V48.9981C77.08 55.075 79.5984 57.7392 81.9706 61.0242C82.8099 62.192 82.9926 63.5976 81.934 64.4731C79.2879 66.681 74.5797 70.7873 71.9886 73.0868L71.9521 73.0502" fill="black"/>
<path d="M86.0863 80.735C45.6065 100 20.4843 83.8816 4.40272 74.0915C3.4076 73.4745 1.71625 74.2358 3.18373 75.9214C8.54129 82.4175 26.0992 98.0752 49.0173 98.0752C71.9512 98.0752 85.5947 85.5614 87.3014 83.3784C88.9966 81.2139 87.7992 80.0199 86.0859 80.735H86.0863ZM97.455 74.4566C96.3679 73.041 90.8449 72.7772 87.3691 73.2041C83.888 73.6188 78.6627 75.7464 79.117 77.0238C79.3501 77.5023 79.8259 77.2877 82.2174 77.0727C84.6154 76.8334 91.3331 75.9856 92.7329 77.8155C94.1392 79.658 90.5903 88.4352 89.9421 89.8507C89.3159 91.2663 90.1814 91.6313 91.3577 90.6885C92.5178 89.7461 94.6181 87.3054 96.0275 83.8516C97.4273 80.3788 98.2812 75.5344 97.455 74.4566Z" fill="#FF9900"/>
<path fill-rule="evenodd" clip-rule="evenodd" d="M58.8682 41.4249C58.8682 46.4798 58.9959 50.6953 56.441 55.1843C54.3788 58.8343 51.1123 61.0788 47.4626 61.0788C42.4805 61.0788 39.579 57.283 39.579 51.6808C39.579 40.6218 49.4878 38.6146 58.8682 38.6146V41.4249ZM71.9524 73.0502C71.0947 73.8165 69.8537 73.8715 68.8867 73.3603C64.58 69.7837 63.8134 68.1231 61.4412 64.7104C54.3242 71.9736 49.2874 74.145 40.0536 74.145C29.1408 74.145 20.6367 67.4111 20.6367 53.9253C20.6367 43.3959 26.3489 36.2239 34.4691 32.7204C41.5134 29.6178 51.3496 29.0704 58.8682 28.213V26.5339C58.8682 23.4497 59.1051 19.8001 57.2988 17.1359C55.7109 14.7452 52.6817 13.7597 50.0171 13.7597C45.0719 13.7597 40.6556 16.2962 39.579 21.5518C39.3597 22.72 38.5023 23.8698 37.3345 23.9244L24.7426 22.5742C23.6844 22.3365 22.5166 21.4791 22.8085 19.8547C25.71 4.59901 39.4874 0 51.8235 0C58.1377 0 66.386 1.67905 71.3682 6.46039C77.6824 12.3546 77.08 20.2197 77.08 28.7784V48.9981C77.08 55.075 79.5984 57.7392 81.9706 61.0242C82.8099 62.192 82.9926 63.5976 81.934 64.4731C79.2879 66.681 74.5797 70.7873 71.9886 73.0868L71.9521 73.0502" fill="black"/>
</g>
<defs>
<clipPath id="clip0_28915_56292">
<rect width="100" height="100" fill="white"/>
</clipPath>
</defs>
</svg>
