<svg width="100" height="100" viewBox="0 0 100 100" fill="none" xmlns="http://www.w3.org/2000/svg">
<path d="M12.9308 38.7419C5.87752 38.7419 0 41.7343 0 50.7622C0 57.9142 3.95221 62.4181 13.113 62.4181C23.8956 62.4181 24.5868 55.3153 24.5868 55.3153H19.3621C19.3621 55.3153 18.2419 59.1399 12.7942 59.1399C8.35729 59.1399 5.16605 56.1426 5.16605 51.9414H25.1332V49.3052C25.1332 45.1489 22.4947 38.7419 12.9308 38.7419ZM12.7487 42.1112C16.9722 42.1112 19.8516 44.6987 19.8516 48.5767H5.28161C5.28161 44.4597 9.03987 42.1112 12.7487 42.1112Z" fill="#E53238"/>
<path d="M25.1286 30V57.8844C25.1286 59.4672 25.0156 61.6897 25.0156 61.6897H29.9989C29.9989 61.6897 30.1778 60.0935 30.1778 58.6347C30.1778 58.6347 32.6398 62.4865 39.3343 62.4865C46.3839 62.4865 51.1724 57.5922 51.1724 50.5801C51.1724 44.0568 46.774 38.8103 39.3457 38.8103C32.3896 38.8103 30.2281 42.5666 30.2281 42.5666V30H25.1286ZM38.0594 42.2593C42.8466 42.2593 45.8908 45.8122 45.8908 50.5801C45.8908 55.6928 42.3749 59.0375 38.0936 59.0375C32.9842 59.0375 30.2281 55.0481 30.2281 50.6256C30.2281 46.5047 32.7012 42.2593 38.0594 42.2593Z" fill="#0064D2"/>
<path d="M63.5558 38.7419C52.9447 38.7419 52.2641 44.5521 52.2641 45.4806H57.5457C57.5457 45.4806 57.8227 42.0885 63.1916 42.0885C66.6804 42.0885 69.3838 43.6854 69.3838 46.7554V47.8482H63.1916C54.971 47.8482 50.625 50.253 50.625 55.1332C50.625 59.9359 54.6405 62.549 60.067 62.549C67.4625 62.549 69.8448 58.4626 69.8448 58.4626C69.8448 60.088 69.9701 61.6896 69.9701 61.6896H74.6654C74.6654 61.6896 74.4833 59.7043 74.4833 58.4342V47.4555C74.4833 40.2569 68.6769 38.7419 63.5558 38.7419ZM69.3838 51.1264V52.5834C69.3838 54.4837 68.2112 59.2082 61.3077 59.2082C57.5274 59.2082 55.9066 57.3215 55.9066 55.1332C55.9066 51.1521 61.3649 51.1264 69.3838 51.1264Z" fill="#F5AF02"/>
<path d="M71.6406 39.6536H77.5824L86.1098 56.7375L94.6176 39.6536H100L84.5032 70.0684H78.8573L83.3291 61.5898L71.6406 39.6536Z" fill="#86B817"/>
</svg>
